<?xml version="1.0" encoding="UTF-8" standalone="no"?>
<svg
   xmlns:dc="http://purl.org/dc/elements/1.1/"
   xmlns:cc="http://creativecommons.org/ns#"
   xmlns:rdf="http://www.w3.org/1999/02/22-rdf-syntax-ns#"
   xmlns:svg="http://www.w3.org/2000/svg"
   xmlns="http://www.w3.org/2000/svg"
   viewBox="0 0 3333.3333 2400"
   height="2400"
   width="3333.3333"
   xml:space="preserve"
   id="svg2"
   version="1.1"><metadata
     id="metadata8"><rdf:RDF><cc:Work
         rdf:about=""><dc:format>image/svg+xml</dc:format><dc:type
           rdf:resource="http://purl.org/dc/dcmitype/StillImage" /></cc:Work></rdf:RDF></metadata><defs
     id="defs6" /><g
     transform="matrix(1.3333333,0,0,-1.3333333,0,2400)"
     id="g10"><g
       transform="scale(0.1)"
       id="g12"><g
         transform="scale(1.53374)"
         id="g14"><path
           id="path16"
           style="fill:#231f20;fill-opacity:1;fill-rule:nonzero;stroke:none"
           d="M 16300,0 H 0 V 11736 H 16300 V 0" /></g><path
         id="path18"
         style="fill:#ffffff;fill-opacity:1;fill-rule:nonzero;stroke:none"
         d="m 9141.94,12968.2 -6.66,-199.7 c 0,0 299.53,13.3 499.22,-13.3 199.68,-26.6 525.8,-79.9 565.8,-519.2 39.9,-439.3 73.2,-2136.6 73.2,-2136.6 0,0 426,-266.27 1104.9,-279.58 0,0 -26.6,1739.48 -35.5,2183.28 -8.8,443.7 319.5,714.4 647.9,727.7 328.4,13.3 665.6,13.3 665.6,13.3 l -8.9,208.6 -3505.56,15.5" /><path
         id="path20"
         style="fill:#ffffff;fill-opacity:1;fill-rule:nonzero;stroke:none"
         d="m 9141.94,5235.9 4.44,-204.1 6012.82,8.9 705.5,2129.9 -226.3,40 c 0,0 -186.4,-678.9 -439.3,-971.8 -252.9,-292.9 -519.2,-625.7 -1291.3,-705.6 -772.1,-79.9 -2076.8,0 -2223.2,0 -146.4,0 -386,136.5 -346.1,579.1 39.9,442.7 0,2808.93 0,2808.93 l -1104.9,266.26 c 0,0 35.5,-2899.89 44.3,-3299.29 8.9,-399.4 -505.84,-772.1 -1135.96,-652.3" /><path
         id="path22"
         style="fill:#ffffff;fill-opacity:1;fill-rule:nonzero;stroke:none"
         d="M 11724.6,6274.3 V 6048 c 0,0 718.8,-62.2 1251.3,4.4 532.5,66.6 2041.3,323.9 2023.5,1672.9 -17.7,1349.03 -1650.7,1668.53 -1650.7,1668.53 0,0 1304.6,399.37 1104.9,1624.07 -199.7,1224.8 -2396.2,1071.7 -2835.5,1065 l 6.6,-179.7 c 0,0 446,37.7 801,2.2 355,-35.5 1038.3,-221.8 1073.8,-1082.7 35.5,-860.88 -505.8,-1251.38 -940.7,-1260.25 l -151.5,-3.09 c -125.6,-2.56 -251.3,3.03 -376.1,16.73 -105.3,11.56 -209.4,31.99 -312.6,56.09 l -1791.23,418.42 -146.44,-497.03 c 0,0 2058.97,-514.74 2786.77,-745.49 727.7,-230.75 1437.7,-550.25 1295.7,-1331.28 -142,-781 -532.5,-1082.7 -905.2,-1144.8 -372.8,-62.2 -1233.6,-57.7 -1233.6,-57.7" /></g></g></svg>